ModelForces
version=1
nRows=4
nColumns=119
inDegrees=no

This file contains the forces exerted on a model during a simulation.

A force is a generalized force, meaning that it can be either a force (N) or a torque (Nm).

Units are S.I. units (second, meters, Newtons, ...)
Angles are in degrees.

endheader
time	semimem_r	semiten_r	bifemlh_r	bifemsh_r	sar_r	grac_r	rect_fem_r	vas_med_r	vas_int_r	vas_lat_r	med_gas_r	lat_gas_r	femur_lat_meniscii_l.femur_lat_l.force.X	femur_lat_meniscii_l.femur_lat_l.force.Y	femur_lat_meniscii_l.femur_lat_l.force.Z	femur_lat_meniscii_l.femur_lat_l.torque.X	femur_lat_meniscii_l.femur_lat_l.torque.Y	femur_lat_meniscii_l.femur_lat_l.torque.Z	femur_lat_meniscii_l.meniscus_lat_l.force.X	femur_lat_meniscii_l.meniscus_lat_l.force.Y	femur_lat_meniscii_l.meniscus_lat_l.force.Z	femur_lat_meniscii_l.meniscus_lat_l.torque.X	femur_lat_meniscii_l.meniscus_lat_l.torque.Y	femur_lat_meniscii_l.meniscus_lat_l.torque.Z	femur_med_meniscii_l.femur_med_l.force.X	femur_med_meniscii_l.femur_med_l.force.Y	femur_med_meniscii_l.femur_med_l.force.Z	femur_med_meniscii_l.femur_med_l.torque.X	femur_med_meniscii_l.femur_med_l.torque.Y	femur_med_meniscii_l.femur_med_l.torque.Z	femur_med_meniscii_l.meniscus_med_l.force.X	femur_med_meniscii_l.meniscus_med_l.force.Y	femur_med_meniscii_l.meniscus_med_l.force.Z	femur_med_meniscii_l.meniscus_med_l.torque.X	femur_med_meniscii_l.meniscus_med_l.torque.Y	femur_med_meniscii_l.meniscus_med_l.torque.Z	femur_lat_meniscii_r.femur_lat_r.force.X	femur_lat_meniscii_r.femur_lat_r.force.Y	femur_lat_meniscii_r.femur_lat_r.force.Z	femur_lat_meniscii_r.femur_lat_r.torque.X	femur_lat_meniscii_r.femur_lat_r.torque.Y	femur_lat_meniscii_r.femur_lat_r.torque.Z	femur_lat_meniscii_r.meniscus_lat_r.force.X	femur_lat_meniscii_r.meniscus_lat_r.force.Y	femur_lat_meniscii_r.meniscus_lat_r.force.Z	femur_lat_meniscii_r.meniscus_lat_r.torque.X	femur_lat_meniscii_r.meniscus_lat_r.torque.Y	femur_lat_meniscii_r.meniscus_lat_r.torque.Z	femur_med_meniscii_r.femur_med_r.force.X	femur_med_meniscii_r.femur_med_r.force.Y	femur_med_meniscii_r.femur_med_r.force.Z	femur_med_meniscii_r.femur_med_r.torque.X	femur_med_meniscii_r.femur_med_r.torque.Y	femur_med_meniscii_r.femur_med_r.torque.Z	femur_med_meniscii_r.meniscus_med_r.force.X	femur_med_meniscii_r.meniscus_med_r.force.Y	femur_med_meniscii_r.meniscus_med_r.force.Z	femur_med_meniscii_r.meniscus_med_r.torque.X	femur_med_meniscii_r.meniscus_med_r.torque.Y	femur_med_meniscii_r.meniscus_med_r.torque.Z	femur_med_tibia_l.tibia_upper_l.force.X	femur_med_tibia_l.tibia_upper_l.force.Y	femur_med_tibia_l.tibia_upper_l.force.Z	femur_med_tibia_l.tibia_upper_l.torque.X	femur_med_tibia_l.tibia_upper_l.torque.Y	femur_med_tibia_l.tibia_upper_l.torque.Z	femur_med_tibia_l.femur_med_l.force.X	femur_med_tibia_l.femur_med_l.force.Y	femur_med_tibia_l.femur_med_l.force.Z	femur_med_tibia_l.femur_med_l.torque.X	femur_med_tibia_l.femur_med_l.torque.Y	femur_med_tibia_l.femur_med_l.torque.Z	femur_lat_tibia_l.tibia_upper_l.force.X	femur_lat_tibia_l.tibia_upper_l.force.Y	femur_lat_tibia_l.tibia_upper_l.force.Z	femur_lat_tibia_l.tibia_upper_l.torque.X	femur_lat_tibia_l.tibia_upper_l.torque.Y	femur_lat_tibia_l.tibia_upper_l.torque.Z	femur_lat_tibia_l.femur_lat_l.force.X	femur_lat_tibia_l.femur_lat_l.force.Y	femur_lat_tibia_l.femur_lat_l.force.Z	femur_lat_tibia_l.femur_lat_l.torque.X	femur_lat_tibia_l.femur_lat_l.torque.Y	femur_lat_tibia_l.femur_lat_l.torque.Z	femur_med_tibia_r.tibia_upper_r.force.X	femur_med_tibia_r.tibia_upper_r.force.Y	femur_med_tibia_r.tibia_upper_r.force.Z	femur_med_tibia_r.tibia_upper_r.torque.X	femur_med_tibia_r.tibia_upper_r.torque.Y	femur_med_tibia_r.tibia_upper_r.torque.Z	femur_med_tibia_r.femur_med_r.force.X	femur_med_tibia_r.femur_med_r.force.Y	femur_med_tibia_r.femur_med_r.force.Z	femur_med_tibia_r.femur_med_r.torque.X	femur_med_tibia_r.femur_med_r.torque.Y	femur_med_tibia_r.femur_med_r.torque.Z	femur_lat_tibia_r.tibia_upper_r.force.X	femur_lat_tibia_r.tibia_upper_r.force.Y	femur_lat_tibia_r.tibia_upper_r.force.Z	femur_lat_tibia_r.tibia_upper_r.torque.X	femur_lat_tibia_r.tibia_upper_r.torque.Y	femur_lat_tibia_r.tibia_upper_r.torque.Z	femur_lat_tibia_r.femur_lat_r.force.X	femur_lat_tibia_r.femur_lat_r.force.Y	femur_lat_tibia_r.femur_lat_r.force.Z	femur_lat_tibia_r.femur_lat_r.torque.X	femur_lat_tibia_r.femur_lat_r.torque.Y	femur_lat_tibia_r.femur_lat_r.torque.Z	aACL_R	pACL_R	aPCL_R	pPCL_R	aMCL_R	aLCL_R	aPCL_L	pPCL_L	aMCL_L	aLCL_L
      0.08653819	    240.40183797	    233.27807519	    224.63333739	    367.75479918	    147.24210804	    129.67255300	     44.74753113	      0.00000000	     37.80572294	     45.99981920	     23.86244528	      5.31129767	      2.76307435	     50.99597937	     -9.56042239	      5.21997485	     -0.02578839	      1.48581788	     -2.76307435	    -50.99597937	      9.56042239	     -1.74637766	      0.02558040	     -0.48301696	     -3.31599387	     20.97615968	     -3.40468921	      0.94473225	     -0.02138609	     -1.00501789	      3.31599387	    -20.97615968	      3.40468921	      0.28075727	      0.00368718	     -0.29758878	     15.26002061	    179.55218336	      9.52715048	     -8.27216161	      0.40662741	      5.40495069	    -15.26002061	   -179.55218336	     -9.52715048	      5.33938407	     -0.57702111	      2.50389947	     29.35079511	    185.53151237	      0.99120483	      3.35676291	     -0.57141891	     11.50211788	    -29.35079511	   -185.53151237	     -0.99120483	     -2.98449729	      0.44097659	      1.89054182	      0.00000000	      0.00000000	      0.00000000	      0.00000000	      0.00000000	      0.00000000	      0.00000000	      0.00000000	      0.00000000	      0.00000000	      0.00000000	      0.00000000	      0.00000000	      0.00000000	      0.00000000	      0.00000000	      0.00000000	      0.00000000	      0.00000000	      0.00000000	      0.00000000	      0.00000000	      0.00000000	      0.00000000	    -82.61005033	   -697.92424770	     22.76441267	    -11.81904792	      1.56044328	      5.41437270	     82.61005033	    697.92424770	    -22.76441267	     23.40196599	     -1.63671928	     34.28050500	     43.41997887	   -313.46531216	    -74.39410342	     11.02239530	      0.27099747	      5.32524950	    -43.41997887	    313.46531216	     74.39410342	    -38.34294385	     -0.94148818	    -18.44567192	      6.66662087	      0.00000000	     13.70563808	      0.00000000	      0.00000000	      0.00000000	      0.00000000	      0.00000000	      0.00000001	      0.00000000
      0.08745590	    238.77286479	    233.74425682	    223.97457509	    367.92550075	    147.20024923	    129.57921746	     44.57373320	      0.00000000	      2.97270119	     48.32224025	     13.44508607	      5.87962562	      2.76307435	     50.99597937	     -9.56042239	      5.21997485	     -0.02578839	      1.48581788	     -2.76307435	    -50.99597937	      9.56042239	     -1.74637766	      0.02558040	     -0.48301696	     -3.31599387	     20.97615968	     -3.40468921	      0.94473225	     -0.02138609	     -1.00501789	      3.31599387	    -20.97615968	      3.40468921	      0.28075727	      0.00368718	     -0.29758878	      8.51826628	    186.71984311	     10.89700906	     -9.01299329	      0.25170649	      2.51694188	     -8.51826628	   -186.71984311	    -10.89700906	      5.58011395	     -0.41243014	      2.92055707	     24.24178446	    195.75026061	      2.16517571	      3.06587380	     -0.46411023	      9.29570375	    -24.24178446	   -195.75026061	     -2.16517571	     -3.10564041	      0.34088001	      2.29058993	      0.00000000	      0.00000000	      0.00000000	      0.00000000	      0.00000000	      0.00000000	      0.00000000	      0.00000000	      0.00000000	      0.00000000	      0.00000000	      0.00000000	      0.00000000	      0.00000000	      0.00000000	      0.00000000	      0.00000000	      0.00000000	      0.00000000	      0.00000000	      0.00000000	      0.00000000	      0.00000000	      0.00000000	    -64.30025548	   -687.05256166	     19.79312852	    -11.53778348	      1.24387509	      6.22014590	     64.30025548	    687.05256166	    -19.79312852	     21.92801484	     -1.27491580	     26.45624143	     50.29583309	   -308.22085094	    -71.91263599	     10.78945399	      0.45523150	      5.62644339	    -50.29583309	    308.22085094	     71.91263599	    -37.18505921	     -1.08466561	    -21.38979598	      4.14444742	      0.00000000	     14.04555126	      0.00000000	      0.00000000	      0.00000000	      0.00000000	      0.00000000	      0.00000001	      0.00000000
      0.08837360	    236.91004981	    233.81716526	    223.13345254	    367.40654493	    146.99156132	    129.35204501	     44.18361247	      0.31987384	     16.85237246	      9.89541711	      5.20369478	      6.58107721	      2.76307435	     50.99597937	     -9.56042239	      5.21997485	     -0.02578839	      1.48581788	     -2.76307435	    -50.99597937	      9.56042239	     -1.74637766	      0.02558040	     -0.48301696	     -3.31599387	     20.97615968	     -3.40468921	      0.94473225	     -0.02138609	     -1.00501789	      3.31599387	    -20.97615968	      3.40468921	      0.28075727	      0.00368718	     -0.29758878	     11.12522176	    186.04694774	     10.24031667	     -8.71331078	      0.30599766	      3.60099338	    -11.12522176	   -186.04694774	    -10.24031667	      5.52716799	     -0.47158121	      2.86881235	     27.34651928	    195.52852096	      0.61704077	      3.70070674	     -0.52663475	     10.58214735	    -27.34651928	   -195.52852096	     -0.61704077	     -3.14880982	      0.40899620	      2.23585511	      0.00000000	      0.00000000	      0.00000000	      0.00000000	      0.00000000	      0.00000000	      0.00000000	      0.00000000	      0.00000000	      0.00000000	      0.00000000	      0.00000000	      0.00000000	      0.00000000	      0.00000000	      0.00000000	      0.00000000	      0.00000000	      0.00000000	      0.00000000	      0.00000000	      0.00000000	      0.00000000	      0.00000000	    -69.84134913	   -662.49955215	     22.90308280	    -11.28250028	      1.37964233	      5.90900582	     69.84134913	    662.49955215	    -22.90308280	     22.76159332	     -1.39159551	     28.74992548	     44.61448240	   -297.03328256	    -68.05306550	     10.34525596	      0.33345181	      5.36088545	    -44.61448240	    297.03328256	     68.05306550	    -35.31021611	     -0.95541035	    -19.01282574	      5.02792072	      0.00000000	     14.06605920	      0.00000000	      0.00000000	      0.00000000	      0.00000000	      0.00000000	      0.00000001	      0.00000000
      0.08929131	    234.94423667	    233.63065888	    222.20628482	    366.59947226	    146.74750405	    129.08044113	     44.02701156	     15.72894569	     33.21487847	     26.64627509	      0.00000000	      7.44198069	      2.76307435	     50.99597937	     -9.56042239	      5.21997485	     -0.02578839	      1.48581788	     -2.76307435	    -50.99597937	      9.56042239	     -1.74637766	      0.02558040	     -0.48301696	     -3.31599387	     20.97615968	     -3.40468921	      0.94473225	     -0.02138609	     -1.00501789	      3.31599387	    -20.97615968	      3.40468921	      0.28075727	      0.00368718	     -0.29758878	     14.26279746	    184.57015494	     11.24585804	     -9.09570024	      0.38278694	      4.91330953	    -14.26279746	   -184.57015494	    -11.24585804	      5.51378975	     -0.57494101	      2.78321042	     31.97858589	    198.51091000	      0.83984403	      3.66432217	     -0.62348719	     12.50493021	    -31.97858589	   -198.51091000	     -0.83984403	     -3.18884813	      0.48480330	      2.17074434	      0.00000000	      0.00000000	      0.00000000	      0.00000000	      0.00000000	      0.00000000	      0.00000000	      0.00000000	      0.00000000	      0.00000000	      0.00000000	      0.00000000	      0.00000000	      0.00000000	      0.00000000	      0.00000000	      0.00000000	      0.00000000	      0.00000000	      0.00000000	      0.00000000	      0.00000000	      0.00000000	      0.00000000	    -78.63035211	   -641.74140908	     20.76669232	    -10.88314870	      1.49886773	      5.50921463	     78.63035211	    641.74140908	    -20.76669232	     21.44942835	     -1.56621611	     32.41738585	     37.25001083	   -281.61640221	    -66.64354983	      9.88873444	      0.13889917	      4.97227876	    -37.25001083	    281.61640221	     66.64354983	    -34.38181544	     -0.78784726	    -15.92027159	      6.01137393	      0.00000000	     14.18743920	      0.00000000	      0.00000000	      0.00000000	      0.00000000	      0.00000000	      0.00000001	      0.00000000
